<?xml version="1.0" encoding="UTF-8"?>
<svg width="16px" height="16px" viewBox="0 0 16 16" version="1.1" xmlns="http://www.w3.org/2000/svg" xmlns:xlink="http://www.w3.org/1999/xlink">
    <title>Brand / IBM / ibm-cloud / 16</title>
    <g id="Page-1" stroke="none" stroke-width="1" fill="none" fill-rule="evenodd">
        <g id="Brand-/-IBM-/-ibm-cloud-/-16" fill="#0f62fe">
            <path d="M12.29025,6.825 C11.2694041,4.91205626 9.10609309,3.90528536 6.98518772,4.35610745 C4.86428234,4.80692954 3.29750585,6.60657213 3.143,8.76935 C1.36027695,8.96106282 0.0386330751,10.5132792 0.133602076,12.3037641 C0.228571077,14.094249 1.70699943,15.4979469 3.5,15.5000008 L11.5,15.5000008 C13.7625796,15.5013902 15.6526438,13.77674 15.8579039,11.5234897 C16.063164,9.27023951 14.5158386,7.23245994 12.29025,6.825 L12.29025,6.825 Z M11.5,14.7500071 L3.5,14.7500071 C2.11944245,14.7531782 0.973549689,13.6840161 0.881188407,12.3065479 C0.788827126,10.9290797 1.78172629,9.71650847 3.15035,9.53535 C3.20324149,10.1970328 3.39102983,10.8408834 3.70215,11.42725 C3.76347622,11.5489432 3.8859922,11.62779 4.02215729,11.6331948 C4.15832238,11.6385997 4.28670246,11.5697119 4.35748137,11.4532623 C4.42826029,11.3368128 4.43029655,11.1911323 4.3628,11.07275 C3.33393337,9.14932169 3.98040926,6.7573522 5.8381122,5.614075 C7.69581515,4.4707978 10.1224954,4.97146958 11.376,6.75665 C10.1647011,6.79004759 9.02144957,7.32410811 8.2185,8.23165 C8.1264198,8.33159455 8.09561627,8.47353455 8.13798485,8.6026569 C8.18035343,8.73177925 8.28926316,8.82787551 8.42265629,8.85383609 C8.55604941,8.87979668 8.69304907,8.8315586 8.78075,8.72775 C9.8844498,7.47584321 11.700279,7.139288 13.1793239,7.91249547 C14.6583689,8.68570294 15.4183584,10.3688313 15.0202845,11.9896215 C14.6222107,13.6104118 13.1689589,14.7500071 11.5,14.7500071 L11.5,14.7500071 Z M15.94915,5.1274 C15.8988837,5.04022774 15.8160223,4.97661649 15.7188221,4.9505814 C15.6216219,4.92454631 15.5180587,4.93822366 15.43095,4.9886 L13.92095,5.8605 C13.8002428,5.92652801 13.7247487,6.05273721 13.7236513,6.19031896 C13.7225777,6.32790071 13.7960711,6.45528538 13.9157214,6.52320975 C14.0353717,6.59113412 14.1824206,6.58894921 14.3,6.5175 L15.81,5.6456 C15.9915001,5.54091129 16.0537942,5.30892581 15.94915,5.1274 Z M11.3382,3.935 C11.4253118,3.9853628 11.5288705,3.9990326 11.6260667,3.97299856 C11.723263,3.94696452 11.8061243,3.88336209 11.8564,3.7962 L12.7283,2.2862 C12.8311611,2.10495412 12.7685535,1.8746693 12.5880836,1.77045273 C12.4076137,1.66623616 12.1768661,1.72711618 12.0713,1.9068 L11.1994,3.4168 C11.0946675,3.59823027 11.1568032,3.83020952 11.3382,3.935 L11.3382,3.935 Z M8,3.04055 C8.20951396,3.0404948 8.3793448,2.87066396 8.3794,2.66115 L8.3794,0.91735 C8.38096794,0.780774526 8.30900436,0.653897267 8.19098093,0.585152894 C8.0729575,0.516408522 7.9270925,0.516408522 7.80906907,0.585152894 C7.69104564,0.653897267 7.61908206,0.780774526 7.62065,0.91735 L7.62065,2.66115 C7.6206776,2.87065588 7.79049413,3.04049479 8,3.04055 L8,3.04055 Z M4.14365,3.7961 C4.24921614,3.97578382 4.4799637,4.03666384 4.66043361,3.93244727 C4.84090353,3.8282307 4.90351114,3.59794588 4.80065,3.4167 L3.92875,1.9067 C3.86152196,1.78824122 3.7359466,1.71491683 3.59974093,1.71458804 C3.46353526,1.71426145 3.33760855,1.78698078 3.26981131,1.90511471 C3.20201407,2.02324865 3.20275402,2.16866215 3.27175,2.2861 L4.14365,3.7961 Z M2.07925,5.8605 L0.56925,4.9886 C0.451812155,4.91960402 0.306398646,4.91886407 0.188264711,4.98666131 C0.0701307761,5.05445855 -0.00258854503,5.18038526 -0.00226196127,5.31659093 C-0.00193317189,5.4527966 0.0713912184,5.57837196 0.18985,5.6456 L1.7,6.5175 C1.81743785,6.58649598 1.96285135,6.58723593 2.08098529,6.51943869 C2.19911922,6.45164145 2.27183855,6.32571474 2.27151196,6.18950907 C2.27118317,6.0533034 2.19785878,5.92772804 2.0794,5.8605 L2.07925,5.8605 Z" id="Fill"></path>
        </g>
    </g>
</svg>